<svg width="378" height="105" viewBox="0 0 378 105" fill="none" xmlns="http://www.w3.org/2000/svg">
<path d="M31.4972 63.4929V19.46H44.5456V63.4929C44.5456 67.7405 43.6146 71.3917 41.7526 74.4465C39.8906 77.4722 37.345 79.7997 34.1156 81.429C30.9153 83.0582 27.3077 83.8728 23.2928 83.8728C19.1325 83.8728 15.4522 83.1746 12.2519 81.7781C9.05162 80.3816 6.53503 78.2432 4.70215 75.363C2.86926 72.4536 1.95282 68.7733 1.95282 64.322H15.0885C15.0885 66.6495 15.4085 68.4969 16.0486 69.8643C16.7177 71.2317 17.6633 72.2063 18.8852 72.7882C20.1071 73.3701 21.5763 73.661 23.2928 73.661C24.9512 73.661 26.3913 73.2682 27.6132 72.4827C28.8351 71.6972 29.7807 70.548 30.4498 69.0352C31.1481 67.5223 31.4972 65.6749 31.4972 63.4929ZM76.6647 83.8728C72.999 83.8728 69.7114 83.2909 66.8021 82.1272C63.8927 80.9344 61.4198 79.2906 59.3832 77.1959C57.3758 75.1011 55.8338 72.6718 54.7574 69.908C53.6809 67.115 53.1427 64.1475 53.1427 61.0054V59.2598C53.1427 55.6813 53.6518 52.4083 54.6701 49.4407C55.6884 46.4732 57.143 43.8984 59.0341 41.7164C60.9543 39.5344 63.2818 37.8616 66.0165 36.6978C68.7513 35.505 71.8352 34.9086 75.2682 34.9086C78.614 34.9086 81.5815 35.4613 84.1708 36.5669C86.7602 37.6724 88.9276 39.2435 90.6732 41.28C92.4479 43.3166 93.7862 45.7604 94.6881 48.6116C95.59 51.4336 96.041 54.5757 96.041 58.0378V63.2747H58.5104V54.8958H83.6908V53.9357C83.6908 52.1901 83.3708 50.6336 82.7307 49.2662C82.1198 47.8697 81.1888 46.7641 79.9377 45.9495C78.6867 45.1349 77.0866 44.7276 75.1373 44.7276C73.479 44.7276 72.0534 45.0913 70.8606 45.8186C69.6678 46.5459 68.6931 47.5642 67.9367 48.8734C67.2094 50.1826 66.6566 51.7246 66.2784 53.4993C65.9293 55.2449 65.7547 57.165 65.7547 59.2598V61.0054C65.7547 62.8964 66.0165 64.642 66.5402 66.2422C67.093 67.8423 67.864 69.2243 68.8531 70.388C69.8714 71.5517 71.0933 72.4536 72.5189 73.0937C73.9736 73.7337 75.6174 74.0538 77.4503 74.0538C79.7195 74.0538 81.8288 73.6174 83.7781 72.7446C85.7564 71.8427 87.4584 70.4898 88.884 68.686L94.9936 75.3193C94.0044 76.7449 92.6516 78.1123 90.9351 79.4215C89.2476 80.7307 87.2111 81.8072 84.8254 82.6509C82.4398 83.4655 79.7195 83.8728 76.6647 83.8728ZM103.896 35.7814H116.508V85.8366C116.508 89.3278 115.868 92.2808 114.588 94.6956C113.308 97.1103 111.46 98.9432 109.046 100.194C106.631 101.445 103.707 102.071 100.274 102.071C99.1976 102.071 98.1502 102.013 97.132 101.896C96.0846 101.78 95.0081 101.591 93.9026 101.329L93.9462 91.6844C94.6445 91.8008 95.3282 91.888 95.9973 91.9462C96.6374 92.0335 97.292 92.0771 97.9611 92.0771C99.2703 92.0771 100.361 91.8589 101.234 91.4225C102.107 90.9861 102.762 90.3024 103.198 89.3715C103.663 88.4696 103.896 87.2913 103.896 85.8366V35.7814ZM102.892 23.4749C102.892 21.642 103.533 20.1291 104.813 18.9363C106.122 17.7434 107.838 17.147 109.962 17.147C112.115 17.147 113.832 17.7434 115.112 18.9363C116.392 20.1291 117.032 21.642 117.032 23.4749C117.032 25.3077 116.392 26.8206 115.112 28.0134C113.832 29.2063 112.115 29.8027 109.962 29.8027C107.838 29.8027 106.122 29.2063 104.813 28.0134C103.533 26.8206 102.892 25.3077 102.892 23.4749ZM148.235 83.8728C144.569 83.8728 141.281 83.2909 138.372 82.1272C135.463 80.9344 132.99 79.2906 130.953 77.1959C128.946 75.1011 127.404 72.6718 126.327 69.908C125.251 67.115 124.713 64.1475 124.713 61.0054V59.2598C124.713 55.6813 125.222 52.4083 126.24 49.4407C127.258 46.4732 128.713 43.8984 130.604 41.7164C132.524 39.5344 134.852 37.8616 137.586 36.6978C140.321 35.505 143.405 34.9086 146.838 34.9086C150.184 34.9086 153.151 35.4613 155.741 36.5669C158.33 37.6724 160.497 39.2435 162.243 41.28C164.018 43.3166 165.356 45.7604 166.258 48.6116C167.16 51.4336 167.611 54.5757 167.611 58.0378V63.2747H130.08V54.8958H155.261V53.9357C155.261 52.1901 154.941 50.6336 154.301 49.2662C153.69 47.8697 152.759 46.7641 151.508 45.9495C150.257 45.1349 148.656 44.7276 146.707 44.7276C145.049 44.7276 143.623 45.0913 142.43 45.8186C141.238 46.5459 140.263 47.5642 139.507 48.8734C138.779 50.1826 138.226 51.7246 137.848 53.4993C137.499 55.2449 137.325 57.165 137.325 59.2598V61.0054C137.325 62.8964 137.586 64.642 138.11 66.2422C138.663 67.8423 139.434 69.2243 140.423 70.388C141.441 71.5517 142.663 72.4536 144.089 73.0937C145.543 73.7337 147.187 74.0538 149.02 74.0538C151.289 74.0538 153.399 73.6174 155.348 72.7446C157.326 71.8427 159.028 70.4898 160.454 68.686L166.563 75.3193C165.574 76.7449 164.221 78.1123 162.505 79.4215C160.817 80.7307 158.781 81.8072 156.395 82.6509C154.01 83.4655 151.289 83.8728 148.235 83.8728Z" fill="white"/>
<g filter="url(#filter0_d_1_146)">
<path d="M183.9 60.3508H167.71V50.139H183.9C186.402 50.139 188.439 49.7317 190.01 48.9171C191.581 48.0733 192.73 46.9096 193.458 45.4258C194.185 43.9421 194.549 42.2692 194.549 40.4072C194.549 38.5162 194.185 36.756 193.458 35.1268C192.73 33.4975 191.581 32.1883 190.01 31.1992C188.439 30.21 186.402 29.7154 183.9 29.7154H172.248V83H159.156V19.46H183.9C188.875 19.46 193.138 20.3619 196.687 22.1656C200.265 23.9403 203 26.3987 204.891 29.5408C206.782 32.6829 207.728 36.276 207.728 40.3199C207.728 44.4221 206.782 47.9715 204.891 50.9681C203 53.9648 200.265 56.2777 196.687 57.9069C193.138 59.5362 188.875 60.3508 183.9 60.3508ZM229.242 35.7814V83H216.63V35.7814H229.242ZM215.845 23.4749C215.845 21.642 216.485 20.1291 217.765 18.9363C219.045 17.7434 220.762 17.147 222.915 17.147C225.038 17.147 226.74 17.7434 228.021 18.9363C229.33 20.1291 229.984 21.642 229.984 23.4749C229.984 25.3077 229.33 26.8206 228.021 28.0134C226.74 29.2063 225.038 29.8027 222.915 29.8027C220.762 29.8027 219.045 29.2063 217.765 28.0134C216.485 26.8206 215.845 25.3077 215.845 23.4749ZM277.203 73.181V83H241.331V73.181H277.203ZM276.505 43.0256L246.393 83H237.971V75.5375L267.951 35.7814H276.505V43.0256ZM272.053 35.7814V45.644H238.669V35.7814H272.053ZM322.676 73.181V83H286.804V73.181H322.676ZM321.978 43.0256L291.866 83H283.444V75.5375L313.424 35.7814H321.978V43.0256ZM317.526 35.7814V45.644H284.142V35.7814H317.526ZM356.061 72.3518V51.3173C356.061 49.8044 355.813 48.5097 355.319 47.4333C354.824 46.3277 354.053 45.4695 353.006 44.8585C351.988 44.2476 350.664 43.9421 349.035 43.9421C347.638 43.9421 346.431 44.1894 345.413 44.684C344.394 45.1495 343.609 45.8332 343.056 46.735C342.503 47.6078 342.227 48.6407 342.227 49.8335H329.658C329.658 47.826 330.124 45.9204 331.055 44.1166C331.986 42.3128 333.339 40.7273 335.113 39.3599C336.888 37.9634 338.997 36.8724 341.441 36.0869C343.914 35.3013 346.678 34.9086 349.733 34.9086C353.399 34.9086 356.657 35.5195 359.508 36.7415C362.359 37.9634 364.6 39.7963 366.229 42.2401C367.887 44.684 368.716 47.7388 368.716 51.4045V71.6099C368.716 74.1992 368.876 76.3231 369.196 77.9814C369.516 79.6106 369.982 81.0362 370.593 82.2581V83H357.894C357.283 81.7199 356.817 80.1198 356.497 78.1996C356.206 76.2503 356.061 74.3011 356.061 72.3518ZM357.719 54.2411L357.806 61.3545H350.78C349.122 61.3545 347.682 61.5436 346.46 61.9218C345.238 62.3 344.234 62.8383 343.449 63.5365C342.663 64.2056 342.081 64.9912 341.703 65.8931C341.354 66.795 341.179 67.7841 341.179 68.8606C341.179 69.9371 341.427 70.9117 341.921 71.7845C342.416 72.6282 343.129 73.2973 344.06 73.7919C344.991 74.2574 346.082 74.4902 347.333 74.4902C349.224 74.4902 350.868 74.112 352.264 73.3555C353.661 72.5991 354.737 71.6681 355.493 70.5626C356.279 69.457 356.686 68.4096 356.715 67.4205L360.032 72.7446C359.566 73.9374 358.926 75.1739 358.112 76.454C357.326 77.7341 356.323 78.9415 355.101 80.0761C353.879 81.1817 352.41 82.0981 350.693 82.8254C348.976 83.5237 346.94 83.8728 344.583 83.8728C341.587 83.8728 338.867 83.2764 336.423 82.0836C334.008 80.8616 332.088 79.1888 330.662 77.0649C329.266 74.912 328.567 72.4682 328.567 69.7334C328.567 67.2605 329.033 65.0639 329.964 63.1437C330.895 61.2236 332.262 59.6089 334.066 58.2997C335.899 56.9614 338.183 55.9577 340.918 55.2885C343.652 54.5903 346.824 54.2411 350.431 54.2411H357.719Z" fill="#FF3F4B"/>
</g>
<defs>
<filter id="filter0_d_1_146" x="150.156" y="7.14697" width="227.436" height="82.7258" filterUnits="userSpaceOnUse" color-interpolation-filters="sRGB">
<feFlood flood-opacity="0" result="BackgroundImageFix"/>
<feColorMatrix in="SourceAlpha" type="matrix" values="0 0 0 0 0 0 0 0 0 0 0 0 0 0 0 0 0 0 127 0" result="hardAlpha"/>
<feOffset dx="-1" dy="-2"/>
<feGaussianBlur stdDeviation="4"/>
<feComposite in2="hardAlpha" operator="out"/>
<feColorMatrix type="matrix" values="0 0 0 0 0 0 0 0 0 0 0 0 0 0 0 0 0 0 0.5 0"/>
<feBlend mode="normal" in2="BackgroundImageFix" result="effect1_dropShadow_1_146"/>
<feBlend mode="normal" in="SourceGraphic" in2="effect1_dropShadow_1_146" result="shape"/>
</filter>
</defs>
</svg>
